<?xml version="1.0" standalone="no"?>
<!DOCTYPE svg PUBLIC "-//W3C//DTD SVG 20010904//EN"
 "http://www.w3.org/TR/2001/REC-SVG-20010904/DTD/svg10.dtd">
<svg version="1.0" xmlns="http://www.w3.org/2000/svg"
 width="1024.000000pt" height="1024.000000pt" viewBox="0 0 1024.000000 1024.000000"
 preserveAspectRatio="xMidYMid meet">
<metadata>
Created by potrace 1.16, written by Peter Selinger 2001-2019
</metadata>
<g transform="translate(0.000000,1024.000000) scale(0.100000,-0.100000)"
fill="#000000" stroke="none">
<path d="M3471 8132 c-135 -267 -243 -674 -313 -1177 -19 -140 -22 -204 -23
-510 0 -385 8 -468 66 -692 67 -263 158 -412 344 -567 97 -80 250 -196 283
-215 14 -8 8 -21 -40 -92 -105 -157 -162 -278 -212 -452 -94 -323 -92 -617 9
-1327 22 -149 134 -808 150 -878 l5 -22 297 2 297 3 8 35 c14 66 -31 292 -122
617 -57 202 -90 377 -90 472 0 93 12 120 25 54 11 -65 74 -210 188 -438 134
-268 180 -380 209 -507 l22 -98 36 103 c53 150 118 290 227 487 150 273 221
415 228 454 13 67 33 39 42 -59 8 -90 -12 -186 -89 -425 -38 -118 -83 -269
-99 -335 -30 -121 -48 -289 -35 -339 l6 -26 278 0 277 0 18 76 c17 71 45 143
157 409 82 192 126 429 118 625 -3 67 -1 107 5 103 18 -11 65 -129 82 -207 25
-110 16 -334 -19 -502 -21 -101 -115 -426 -141 -488 -8 -17 9 -18 511 -13 544
5 618 10 849 58 212 43 317 85 455 179 239 164 397 397 456 674 25 115 20 300
-10 420 -73 285 -281 534 -557 666 -204 97 -519 126 -639 59 -133 -75 -123
-272 17 -343 23 -12 61 -16 140 -16 214 -1 361 -57 494 -189 253 -254 233
-623 -49 -881 -150 -138 -401 -212 -769 -227 -84 -3 -153 -4 -153 -2 0 2 9 31
19 64 37 118 54 268 48 430 -9 264 -76 481 -209 678 -42 62 -165 192 -225 238
-30 22 -36 36 -73 184 -37 145 -99 366 -115 406 -5 14 6 17 73 22 259 20 441
112 662 336 250 252 460 626 608 1081 96 296 148 575 168 907 l7 112 -24 5
c-179 40 -515 58 -699 37 -198 -23 -383 -70 -582 -146 l-88 -34 -67 41 c-221
135 -534 241 -838 284 -149 21 -452 24 -585 5 -292 -41 -566 -144 -802 -302
l-87 -58 -7 66 c-9 91 1 309 20 418 18 100 66 280 91 338 l15 37 38 -19 c105
-54 248 -175 338 -286 l41 -50 54 17 c64 20 197 44 292 53 l67 7 -20 26 c-43
56 -248 257 -325 319 -175 142 -354 245 -561 326 -147 58 -138 58 -173 -11z
m915 -1372 c26 -13 58 -40 75 -63 29 -40 46 -83 37 -93 -3 -3 -41 7 -84 22
-66 23 -97 27 -189 28 -60 1 -125 -2 -142 -6 -42 -10 -43 5 -2 55 30 36 68 62
119 78 41 14 136 3 186 -21z m2590 -27 c-3 -16 -8 -53 -11 -83 -9 -75 -52
-267 -75 -335 -32 -92 -90 -214 -148 -312 -31 -51 -58 -93 -61 -93 -3 0 -21
42 -40 93 -66 182 -185 396 -283 510 -60 69 -64 62 87 137 150 74 285 106 453
109 l84 1 -6 -27z m-1923 -193 c29 -11 68 -35 85 -53 l32 -33 -52 -25 c-29
-13 -78 -43 -110 -66 l-57 -42 -12 42 c-6 23 -26 71 -45 107 -19 35 -34 68
-34 71 0 24 128 23 193 -1z m890 -258 c82 -44 143 -147 129 -218 -4 -22 -7
-21 -69 27 -88 67 -150 97 -255 123 l-88 22 32 31 c61 59 160 65 251 15z
m-1003 -198 c0 -32 55 -126 95 -163 49 -45 138 -81 202 -81 l46 0 -26 -32
c-15 -18 -82 -114 -149 -212 -138 -201 -219 -295 -282 -325 -109 -53 -228 5
-267 130 -6 19 -15 147 -19 284 -6 154 -14 272 -23 308 -8 31 -14 57 -13 57 0
0 30 -9 64 -20 112 -35 223 -21 313 40 50 34 59 36 59 14z"/>
</g>
</svg>
